<svg width="40" height="40" viewBox="0 0 40 40" fill="none" xmlns="http://www.w3.org/2000/svg">
<path d="M17.9063 8.18118L19.2938 6.79368C19.8813 6.20618 20.8313 6.20618 21.4125 6.79368L33.5625 18.9374C34.15 19.5249 34.15 20.4749 33.5625 21.0562L21.4125 33.2062C20.825 33.7937 19.875 33.7937 19.2938 33.2062L17.9063 31.8187C17.3125 31.2249 17.325 30.2562 17.9313 29.6749L25.4625 22.4999H7.5C6.66875 22.4999 6 21.8312 6 20.9999V18.9999C6 18.1687 6.66875 17.4999 7.5 17.4999H25.4625L17.9313 10.3249C17.3188 9.74368 17.3063 8.77493 17.9063 8.18118Z" fill="#2B99D8"/>
</svg>
