<svg fill="none" height="40" viewBox="0 0 40 40" width="40" xmlns="http://www.w3.org/2000/svg"><path d="m31 6.00031h-22c-1.65687 0-3 1.34312-3 3v21.99999c0 1.6569 1.34313 3 3 3h22c1.6569 0 3-1.3431 3-3v-21.99999c0-1.65688-1.3431-3-3-3zm-11 24.87499c-1.5853 0-2.875-1.2897-2.875-2.875s1.2897-2.875 2.875-2.875 2.875 1.2897 2.875 2.875-1.2897 2.875-2.875 2.875zm2.5-8.2083v.0833c0 .4142-.3358.75-.75.75h-3.5c-.4142 0-.75-.3358-.75-.75v-.25c0-2.5662 1.9455-3.592 3.4158-4.4162 1.2606-.7069 2.0333-1.1875 2.0333-2.1235 0-1.2382-1.5793-2.0599-2.8561-2.0599-1.6994 0-2.4649.8212-3.5814 2.2373-.2528.3206-.7163.3793-1.0416.1326l-2.1687-1.6444c-.3167-.2401-.3907-.6857-.1697-1.0161 1.7059-2.55 3.8783-3.98479 7.2843-3.98479 3.5229 0 7.2832 2.74989 7.2832 6.37499 0 4.8138-5.1991 4.8878-5.1991 6.6667z" fill="#29cd9c"/></svg>