<svg fill="none" height="328" viewBox="0 0 3050 328" width="3050" xmlns="http://www.w3.org/2000/svg" xmlns:xlink="http://www.w3.org/1999/xlink"><clipPath id="a"><path d="m1231 64h200v200h-200z"/></clipPath><clipPath id="b"><path d="m842 64h200v200h-200z"/></clipPath><clipPath id="c"><path d="m453 64h200v198.592h-200z"/></clipPath><clipPath id="d"><path d="m64 64h200v198.592h-200z"/></clipPath><clipPath id="e"><path d="m2787 64h200v200h-200z"/></clipPath><clipPath id="f"><path d="m2398 64h200v198.592h-200z"/></clipPath><clipPath id="g"><path d="m1620 64h200v200h-200z"/></clipPath><clipPath id="h"><path d="m2009 64h200v198.592h-200z"/></clipPath><g clip-path="url(#a)"><path d="m1331.01 264.029c55.24 0 100.02-44.778 100.02-100.015 0-55.236-44.78-100.014-100.02-100.014-55.23 0-100.01 44.778-100.01 100.014 0 55.237 44.78 100.015 100.01 100.015z" fill="#a0d3f0"/><path d="m1331.01 226.498c-7.95 0-14.41-6.461-14.41-14.415v-96.166c0-7.954 6.46-14.415 14.41-14.415 7.96 0 14.42 6.461 14.42 14.415v96.166c0 7.954-6.46 14.415-14.42 14.415z" fill="#29cd9c"/><path d="m1385.11 132.744c3.99 6.891 1.61 15.707-5.28 19.698l-83.27 48.069c-6.9 3.992-15.71 1.608-19.7-5.283-3.99-6.892-1.61-15.707 5.28-19.699l83.27-48.069c6.93-3.962 15.74-1.608 19.7 5.284z" fill="#035670"/><path d="m1276.89 132.744c3.99-6.892 12.8-9.275 19.7-5.284l83.27 48.069c6.89 3.992 9.27 12.807 5.28 19.699-3.99 6.891-12.8 9.275-19.7 5.283l-83.27-48.069c-6.92-3.962-9.27-12.807-5.28-19.698z" fill="#fff"/><path d="m1331.01 180.669 28.83-16.655-28.83-16.654-28.85 16.654z" fill="#a0d3f0"/></g><g clip-path="url(#b)"><path d="m942.014 264.029c55.237 0 100.016-44.778 100.016-100.015 0-55.236-44.779-100.014-100.016-100.014-55.236 0-100.014 44.778-100.014 100.014 0 55.237 44.778 100.015 100.014 100.015z" fill="#29cd9c"/><path d="m921.368 179.004-35.606-22.513v30.007l37.501 37.502 74.975-75.004v-30.007z" fill="#035670"/><path d="m983.249 104-59.986 60.014-22.512-22.512-14.989 14.989 37.501 37.502 74.975-75.004z" fill="#fff"/></g><g clip-path="url(#c)"><path d="m553.014 262.62c55.237 0 100.015-44.463 100.015-99.31s-44.778-99.31-100.015-99.31c-55.236 0-100.014 44.463-100.014 99.31s44.778 99.31 100.014 99.31z" fill="#035670"/><path d="m513.014 175.941v27.087h27.28c-.029-14.969-12.233-27.087-27.28-27.087z" fill="#fff"/><path d="m513.014 139.816v27.087c20.072 0 36.354 16.167 36.354 36.097h27.279c0-34.9-28.485-63.184-63.633-63.184z" fill="#a0d3f0"/><path d="m513.014 103.718v27.088c40.173 0 72.736 32.333 72.736 72.222h27.279c-.029-54.858-44.796-99.31-100.015-99.31z" fill="#29cd9c"/></g><g clip-path="url(#d)"><path d="m164.014 262.62c55.237 0 100.015-44.463 100.015-99.31s-44.778-99.31-100.015-99.31c-55.236 0-100.014 44.463-100.014 99.31s44.778 99.31 100.014 99.31z" fill="#f5e6c7"/><path d="m113.993 122.679v81.233c0 4.99 4.077 9.039 9.103 9.039h90.911v-90.272z" fill="#29cd9c"/><path d="m123.096 113.641c-5.026 0-9.103 4.049-9.103 9.038 0 4.99 4.077 9.039 9.103 9.039h90.911v-18.049h-90.911z" fill="#035670"/><path d="m173.088 158.776c-7.523 0-13.639 6.074-13.639 13.544s6.116 13.544 13.639 13.544h40.919v-27.088z" fill="#a0d3f0"/><path d="m173.088 176.825c2.506 0 4.537-2.017 4.537-4.505s-2.031-4.505-4.537-4.505c-2.505 0-4.536 2.017-4.536 4.505s2.031 4.505 4.536 4.505z" fill="#fff"/></g><g clip-path="url(#e)"><path d="m2887.01 264.029c55.24 0 100.02-44.778 100.02-100.015 0-55.236-44.78-100.014-100.02-100.014-55.23 0-100.01 44.778-100.01 100.014 0 55.237 44.78 100.015 100.01 100.015z" fill="#a0d3f0"/><path d="m2887.01 100.497c-14.55 0-26.36 11.802-26.36 26.36 0 14.559 11.81 26.36 26.36 26.36 14.56 0 26.36-11.801 26.36-26.36 0-14.558-11.83-26.36-26.36-26.36z" fill="#035670"/><path d="m2887.01 114.883c-6.6 0-11.97 5.37-11.97 11.974 0 6.605 5.37 11.974 11.97 11.974 6.61 0 11.98-5.369 11.98-11.974 0-6.604-5.37-11.974-11.98-11.974z" fill="#29cd9c"/><path d="m2913.35 162.779h-52.7c-14.55 0-26.36 11.802-26.36 26.361v26.36h14.39v-26.36c0-6.605 5.37-11.974 11.97-11.974h52.7c6.6 0 11.97 5.369 11.97 11.974v26.36h14.39v-26.36c0-14.559-11.81-26.361-26.36-26.361z" fill="#035670"/><path d="m2863.04 215.5v-23.948h47.92v23.948h14.39v-26.36c0-6.605-5.37-11.974-11.98-11.974h-52.72c-6.6 0-11.97 5.369-11.97 11.974v26.36z" fill="#29cd9c"/></g><g clip-path="url(#f)"><path d="m2498.01 262.62c55.24 0 100.02-44.462 100.02-99.31 0-54.847-44.78-99.31-100.02-99.31-55.23 0-100.01 44.463-100.01 99.31 0 54.848 44.78 99.31 100.01 99.31z" fill="#29cd9c"/><path d="m2513.64 163.31v-31.05h-31.28v31.05h-31.24v31.022h31.24v31.022h31.28v-31.022h31.24v-31.022z" fill="#035670"/><path d="m2513.64 132.26v-31.022h-31.28v31.022h-31.24v31.05h31.24v31.022h31.28v-31.022h31.24v-31.05z" fill="#fff"/></g><g clip-path="url(#g)"><path d="m1720.01 264.029c55.24 0 100.02-44.778 100.02-100.015 0-55.236-44.78-100.014-100.02-100.014-55.23 0-100.01 44.778-100.01 100.014 0 55.237 44.78 100.015 100.01 100.015z" fill="#035670"/><path d="m1724.32 159.477h-8.64l-28.37 57.517h65.38z" fill="#f5e6c7"/><path d="m1733.28 101.99h-26.56c-2.44 0-4.42 1.981-4.42 4.422s1.98 4.422 4.42 4.422h26.53c2.44 0 4.42-1.981 4.42-4.422s-1.95-4.422-4.39-4.422z" fill="#29cd9c"/><path d="m1733.25 110.834h-26.53v26.533h26.53z" fill="#f5e6c7"/><path d="m1733.25 110.834h-26.53v4.422h26.53z" fill="#a0d3f0"/><path d="m1687.31 216.993 45.97-79.626h-26.56l-32.68 56.654c-5.91 10.223 1.47 22.972 13.27 22.972z" fill="#29cd9c"/><path d="m1752.69 216.993-45.97-79.598h26.53l32.71 56.626c5.91 10.223-1.47 22.972-13.27 22.972z" fill="#a0d3f0"/></g><g clip-path="url(#h)"><path d="m2109.01 262.62c55.24 0 100.02-44.462 100.02-99.31 0-54.847-44.78-99.31-100.02-99.31-55.23 0-100.01 44.463-100.01 99.31 0 54.848 44.78 99.31 100.01 99.31z" fill="#f5e6c7"/><path d="m2169 151.848h-32.13l22.74-22.582-16.31-16.195-22.74 22.582v-31.935h-23.09v31.906l-22.74-22.582-16.31 16.195 22.74 22.583h-32.16v22.924h32.13l-22.74 22.582 16.31 16.195 22.74-22.582v31.906h23.09v-31.877l22.74 22.582 16.31-16.196-22.74-22.582h32.13v-22.924zm-59.99 27.486c-8.93 0-16.16-7.185-16.16-16.052 0-8.868 7.23-16.053 16.16-16.053s16.17 7.185 16.17 16.053c0 8.867-7.26 16.052-16.17 16.052z" fill="#a0d3f0"/></g></svg>